<svg width="367" height="316" viewBox="0 0 367 316" fill="none" xmlns="http://www.w3.org/2000/svg">
<g clip-path="url(#clip0_1273_9842)">
<g opacity="0.4">
<path d="M59.2652 313.178C146.199 313.178 216.667 243.707 216.667 157.977C216.667 72.2476 146.199 2.77686 59.2652 2.77686C-27.6683 2.77686 -98.1367 72.2924 -98.1367 158.022C-98.1367 243.752 -27.6683 313.223 59.2652 313.223V313.178Z" stroke="#A22CFF" stroke-width="2" stroke-miterlimit="10"/>
<path d="M206.781 313.178C293.714 313.178 364.183 243.707 364.183 157.977C364.183 72.2476 293.714 2.77686 206.781 2.77686C119.847 2.77686 49.3789 72.2476 49.3789 157.977C49.3789 243.707 119.847 313.178 206.781 313.178Z" stroke="#A22CFF" stroke-width="2" stroke-miterlimit="10"/>
<path d="M-98.7617 157.978H217.295" stroke="#A22CFF" stroke-width="2" stroke-miterlimit="10"/>
</g>
</g>
<defs>
<clipPath id="clip0_1273_9842">
<rect width="367" height="316" fill="white"/>
</clipPath>
</defs>
</svg>
