<svg width="339" height="64" viewBox="0 0 339 64" fill="none" xmlns="http://www.w3.org/2000/svg">
<g clip-path="url(#clip0_1993_20408)">
<path d="M119.543 42.9717C117.257 51.2003 110.4 56.686 100.571 56.686C88 56.686 79.3143 47.7717 79.3143 34.286C79.3143 20.1146 89.6 9.82884 104.457 9.82884C110.171 9.82884 114.286 11.2003 116.571 12.1146L117.943 25.1431H117.029C111.771 16.9146 107.2 11.6574 103.314 11.6574C98.0572 11.6574 93.9429 18.0574 93.9429 28.3431C93.9429 41.3717 100.8 46.4003 108.571 46.4003C112.914 46.4003 116.8 44.8003 119.086 42.7431H119.543V42.9717ZM155.429 33.3717C155.429 20.5717 152.914 11.4288 146.286 11.4288C139.657 11.4288 137.143 20.3431 137.143 33.1431C137.143 45.9431 139.886 54.6288 146.286 54.6288C152.686 54.6288 155.429 45.9431 155.429 33.1431M122.057 33.1431C122.057 20.5717 133.029 9.82884 146.286 9.82884C159.543 9.82884 170.514 20.8003 170.514 33.3717C170.514 45.9431 159.543 56.4574 146.286 56.4574C133.029 56.4574 122.057 45.9431 122.057 33.3717M193.829 55.3145H174.857V54.8574C176.229 50.286 177.143 46.8574 177.143 39.086V29.0288C177.143 22.1717 175.771 18.5145 172.571 14.6288L191.086 9.14312V18.286H191.543C193.829 14.6288 198.629 9.60026 206.629 9.60026C214.629 9.60026 220.343 14.6288 220.343 22.1717V39.086C220.343 46.6288 220.8 50.5145 222.4 54.8574H203.429C205.029 50.286 205.714 46.4003 205.714 39.3146V23.086C205.714 19.2003 203.886 16.2288 199.543 16.2288C196.114 16.2288 193.371 18.5146 191.543 20.8003V39.086C191.543 46.6288 192.229 50.5145 193.829 54.8574V55.3145ZM229.714 44.1145V13.2574H224.686V12.5717L242.971 0.914551H244.114V11.4288H276.571V13.2574H244.114V43.6574C244.114 49.1431 247.086 50.7431 250.514 50.7431C253.714 50.7431 255.771 49.3717 255.771 49.3717H256C253.943 53.0288 249.143 56.4574 242.057 56.4574C234.743 56.4574 229.714 53.0288 229.714 44.1145Z" fill="white"/>
<path d="M260.343 55.3149V54.8578C261.714 50.2863 262.629 46.8578 262.629 39.0863V29.0292C262.629 22.172 262.857 16.6863 259.657 13.0292V12.8006L276.571 11.4292V20.3435C280.457 16.4578 284.8 9.37205 292.571 9.82919L290.971 25.1435H290.514C288.195 22.1979 284.847 20.2384 281.143 19.6578C279.771 19.6578 278.171 20.8006 277.029 22.4006V39.3149C277.029 46.8578 277.714 50.7435 279.314 55.0863H260.343V55.3149ZM316.343 48.0006V32.4578C309.943 34.2863 306.514 38.6292 306.514 42.972C306.514 46.4006 308.571 48.6863 312.457 48.6863C314.057 48.6863 315.2 48.4578 316.343 47.772M316.571 49.6006C314.057 53.2578 309.714 56.4578 304 56.4578C298.514 56.4578 293.714 52.572 293.714 45.9435C293.714 36.1149 306.057 32.6863 316.343 30.6292V26.0578C316.343 20.572 314.057 18.0578 307.657 18.0578C304.229 18.0578 299.886 18.7435 296 20.3435L295.543 19.8863C300.114 14.6292 306.971 9.82919 316.8 9.82919C326.4 9.82919 330.743 14.6292 330.743 21.7149V44.8006C330.743 47.0863 331.886 48.9149 334.629 48.9149C335.771 48.9149 336.914 48.6863 338.057 47.772L338.286 48.2292C336.914 51.2006 333.714 56.4578 326.171 56.4578C320.686 56.4578 317.486 53.4863 316.571 49.6006Z" fill="white"/>
<path d="M241.143 13.0286H276.571V10.7429H241.143V13.0286ZM33.8286 29.7143H62.4C62.8571 29.7143 63.0857 29.7143 63.0857 29.2571V28.3429C63.0857 28.1143 63.0857 27.8857 62.6286 27.8857C49.1429 24.2286 38.6286 13.9429 35.2 0.457143L34.2857 0H33.6C33.3714 0 33.1429 0.228571 33.1429 0.685714V29.2571C33.1429 29.4857 33.1429 29.7143 33.6 29.7143H33.8286ZM33.8286 63.0857H34.7429L35.2 62.6286C38.8571 49.1429 49.1429 38.6286 62.6286 35.2L63.0857 34.5143V33.8286C63.0857 33.6 62.8571 33.1429 62.4 33.1429H33.8286L33.3714 33.8286V62.4C33.3714 62.8571 33.3714 63.0857 33.8286 63.0857ZM28.5714 63.0857H29.2571C29.4857 63.0857 29.7143 62.8571 29.7143 62.4V33.8286C29.7143 33.6 29.7143 33.1429 29.2571 33.1429H0.685714C0.228571 33.1429 0 33.6 0 33.8286V34.7429C0 34.9714 0 35.2 0.457143 35.2C13.9429 38.6286 24.4571 49.1429 27.8857 62.6286L28.5714 63.0857ZM0.685714 29.7143H29.2571C29.4857 29.7143 29.7143 29.7143 29.7143 29.2571V0.685714C29.7143 0.228571 29.7143 0 29.2571 0H28.3429C28.1143 0 27.8857 0 27.8857 0.457143C24.2286 13.7143 13.7143 24.4571 0.457143 27.8857L0 28.5714V29.2571C0 29.4857 0.228571 29.7143 0.685714 29.7143Z" fill="white"/>
</g>
<defs>
<clipPath id="clip0_1993_20408">
<rect width="338.286" height="64" fill="white"/>
</clipPath>
</defs>
</svg>
