<svg width="609" height="450" viewBox="0 0 609 450" fill="none" xmlns="http://www.w3.org/2000/svg">
<path d="M589 1.21875C600.046 1.21877 609 10.1731 609 21.2188V429.219C609 440.264 600.046 449.219 589 449.219H82.2891C30.9678 388.858 0 310.656 0 225.219C0 139.782 30.9678 61.579 82.2891 1.21875H589Z" fill="#9250C4"/>
<path d="M592.099 1C601.33 1.00007 608.814 8.48396 608.814 17.7158V432.284C608.814 441.516 601.331 449 592.099 449H191.97C135.21 392.565 100 313.965 100 227.033C100 137.993 136.938 57.6939 196.137 1H592.099Z" fill="#A865DB"/>
<path d="M594.678 1.21875C602.458 1.21899 608.766 7.52681 608.766 15.3076V435.13C608.766 442.911 602.458 449.219 594.678 449.219H279.813C218.673 397.329 180 320.726 180 235.278C180 137.981 230.143 52.1526 306.503 1.21875H594.678Z" fill="#BC7FEB"/>
<path d="M597.145 1.21875C603.692 1.21875 609 6.52662 609 13.0742V437.363C609 443.911 603.692 449.219 597.145 449.219H396.543C317.716 405.791 264 319.483 264 220.101C264 128.008 310.125 47.142 379.613 1.21875H597.145Z" fill="#D1A1F5"/>
<path d="M609 439C577.351 439 546.013 433.465 516.773 422.71C487.534 411.956 460.966 396.193 438.587 376.321C416.208 356.449 398.456 332.858 386.345 306.894C374.234 280.931 368 253.103 368 225C368 196.897 374.234 169.069 386.345 143.106C398.456 117.142 416.208 93.5509 438.587 73.6791C460.966 53.8074 487.534 38.0443 516.773 27.2898C546.013 16.5353 577.351 11 609 11L609 225L609 439Z" fill="#E6C9FC"/>
<path d="M609 396C586.413 396 564.046 391.551 543.178 382.907C522.31 374.263 503.349 361.594 487.378 345.622C471.406 329.651 458.737 310.69 450.093 289.822C441.449 268.954 437 246.587 437 224C437 201.413 441.449 179.046 450.093 158.178C458.737 137.31 471.406 118.349 487.378 102.378C503.349 86.4059 522.31 73.7365 543.178 65.0927C564.046 56.4489 586.413 52 609 52L609 224L609 396Z" fill="#FBF5FF"/>
</svg>
