<svg width="375" height="508" viewBox="0 0 375 508" fill="none" xmlns="http://www.w3.org/2000/svg">
<path d="M373.167 490.614C373.167 499.815 365.708 507.273 356.508 507.273L16.6592 507.273C7.4585 507.273 -2.18476e-05 499.815 -2.14454e-05 490.614L-2.99611e-06 68.543C50.2777 25.7946 115.418 0.00010097 186.583 8.19221e-06C257.749 1.1303e-05 322.889 25.7952 373.167 68.544L373.167 490.614Z" fill="#9250C4"/>
<path d="M373.349 493.195C373.349 500.885 367.115 507.119 359.425 507.119L14.1061 507.119C6.41618 507.119 0.182233 500.885 0.182233 493.195L0.182248 159.902C47.1902 112.624 112.661 83.2959 185.072 83.2959C259.239 83.2959 326.125 114.064 373.349 163.374L373.349 493.195Z" fill="#A865DB"/>
<path d="M373.167 495.343C373.167 501.824 367.913 507.078 361.432 507.078L11.7353 507.078C5.2541 507.078 -1.53817e-05 501.824 -1.50984e-05 495.343L-3.63419e-06 233.073C43.2223 182.145 107.029 149.933 178.204 149.933C259.249 149.933 330.741 191.7 373.167 255.306L373.167 495.343Z" fill="#BC7FEB"/>
<path d="M373.167 497.398C373.167 502.852 368.746 507.273 363.292 507.273L9.87499 507.273C4.42113 507.273 -1.23682e-05 502.852 -1.21298e-05 497.398L-4.82588e-06 330.305C36.1739 264.645 108.065 219.901 190.847 219.901C267.556 219.901 334.915 258.321 373.167 316.203L373.167 497.398Z" fill="#D1A1F5"/>
<path d="M8.51172 507.273C8.51172 480.911 13.1224 454.807 22.0805 430.452C31.0386 406.097 44.1687 383.967 60.7211 365.326C77.2735 346.685 96.9241 331.899 118.551 321.81C140.178 311.722 163.357 306.53 186.766 306.53C210.174 306.53 233.354 311.722 254.98 321.81C276.607 331.899 296.258 346.685 312.81 365.326C329.363 383.967 342.493 406.097 351.451 430.452C360.409 454.807 365.02 480.911 365.02 507.273L186.766 507.273L8.51172 507.273Z" fill="#E6C9FC"/>
<path d="M44.3291 507.273C44.3291 488.459 48.0348 469.829 55.2348 452.447C62.4348 435.064 72.9879 419.27 86.2917 405.967C99.5955 392.663 115.389 382.11 132.772 374.91C150.154 367.71 168.784 364.004 187.599 364.004C206.413 364.004 225.043 367.71 242.425 374.91C259.808 382.11 275.602 392.663 288.905 405.967C302.209 419.27 312.762 435.064 319.962 452.447C327.162 469.829 330.868 488.459 330.868 507.273L187.599 507.273L44.3291 507.273Z" fill="#FBF5FF"/>
</svg>
